<svg xmlns="http://www.w3.org/2000/svg" viewBox="0 0 36 36"><g fill="#FFDC5D"><rect x="4" y="12" width="4" height="12" rx="2"/><rect x="9" y="7" width="4" height="17" rx="2"/><rect x="14" y="5" width="4" height="19" rx="2"/><rect x="19" y="6" width="4" height="18" rx="2"/><rect x="24" y="9" width="4" height="15" rx="2"/><path d="M3 21c0-3 2-5 5-5h16c3 0 5 2 5 5v6c0 3.5-3 6.5-6.5 6.5H9.5C6 33.5 3 30.5 3 27z"/></g><g fill="#EF9645" opacity="0.5"><rect x="4" y="12" width="4" height="2.5" rx="1.25"/><rect x="9" y="7" width="4" height="2.5" rx="1.25"/><rect x="14" y="5" width="4" height="2.5" rx="1.25"/><rect x="19" y="6" width="4" height="2.5" rx="1.25"/><rect x="24" y="9" width="4" height="2.5" rx="1.25"/></g></svg>